<svg width="129" height="36" viewBox="0 0 129 36" fill="none" xmlns="http://www.w3.org/2000/svg">
<path d="M4.80005 30.624H10.2241C13.3601 30.624 15.7921 29.68 17.5201 27.792C19.2481 25.872 20.1121 22.672 20.1121 18.192C20.1121 14.128 19.2481 11.072 17.5201 9.02404C15.7921 6.94404 13.4561 5.90404 10.5121 5.90404H4.80005V30.624ZM5.38826e-05 35.04V1.44004H10.7521C12.6721 1.44004 14.4801 1.77604 16.1761 2.44804C17.8721 3.12004 19.4081 4.11204 20.7841 5.42404C22.1601 6.73604 23.2481 8.49604 24.0481 10.704C24.8801 12.88 25.2961 15.376 25.2961 18.192C25.2961 21.264 24.8801 23.936 24.0481 26.208C23.2161 28.48 22.0801 30.24 20.6401 31.488C19.2001 32.704 17.6321 33.6 15.9361 34.176C14.2721 34.752 12.4481 35.04 10.4641 35.04H5.38826e-05ZM51.0038 35.04L48.7958 28.848H34.3958L32.2358 35.04H27.2438L39.3878 1.44004H43.9958L56.0918 35.04H51.0038ZM41.5478 8.35204L35.8358 24.72H47.3558L41.6438 8.35204H41.5478ZM61.1251 35.04V1.44004H74.2771C77.7331 1.44004 80.4851 2.33604 82.5331 4.12804C84.5811 5.88804 85.6051 8.40004 85.6051 11.664C85.6051 14.512 84.9331 16.704 83.5891 18.24C82.2451 19.776 80.2931 20.816 77.7331 21.36L85.0771 35.04H79.7971L72.6931 21.744H65.9251V35.04H61.1251ZM65.9251 17.472H73.8931C75.9731 17.472 77.6371 17.008 78.8851 16.08C80.1331 15.152 80.7571 13.68 80.7571 11.664C80.7571 7.76004 78.4531 5.80804 73.8451 5.80804H65.9251V17.472ZM104.26 35.76C102.34 35.76 100.548 35.424 98.8842 34.752C97.2202 34.08 95.7002 33.072 94.3242 31.728C92.9802 30.352 91.9082 28.496 91.1082 26.16C90.3082 23.792 89.9082 21.056 89.9082 17.952C89.9082 12.48 91.3002 8.24004 94.0842 5.23204C96.9002 2.22404 100.292 0.720037 104.26 0.720037C107.812 0.720037 110.74 1.79204 113.044 3.93604C115.38 6.08004 116.772 8.96004 117.22 12.576L112.324 13.392C111.46 7.95204 108.772 5.23204 104.26 5.23204C101.572 5.23204 99.3482 6.32004 97.5882 8.49604C95.8282 10.64 94.9482 13.792 94.9482 17.952C94.9482 22.4 95.8122 25.728 97.5402 27.936C99.2682 30.144 101.508 31.248 104.26 31.248C108.932 31.248 111.556 28.24 112.132 22.224L117.268 23.04C116.948 26.944 115.636 30.048 113.332 32.352C111.028 34.624 108.004 35.76 104.26 35.76ZM123.462 35.04V9.60004H128.118V35.04H123.462ZM123.27 4.94404V3.8147e-05H128.31V4.94404H123.27Z" fill="white"/>
</svg>
